<?xml version="1.0" encoding="utf-8" standalone="no"?>
<!DOCTYPE svg PUBLIC "-//W3C//DTD SVG 1.1//EN"
  "http://www.w3.org/Graphics/SVG/1.1/DTD/svg11.dtd">
<svg xmlns:xlink="http://www.w3.org/1999/xlink" width="288pt" height="288pt" viewBox="0 0 288 288" xmlns="http://www.w3.org/2000/svg" version="1.1">
 <metadata>
  <rdf:RDF xmlns:dc="http://purl.org/dc/elements/1.1/" xmlns:cc="http://creativecommons.org/ns#" xmlns:rdf="http://www.w3.org/1999/02/22-rdf-syntax-ns#">
   <cc:Work>
    <dc:type rdf:resource="http://purl.org/dc/dcmitype/StillImage"/>
    <dc:date>2025-09-10T13:24:20.475689</dc:date>
    <dc:format>image/svg+xml</dc:format>
    <dc:creator>
     <cc:Agent>
      <dc:title>Matplotlib v3.10.6, https://matplotlib.org/</dc:title>
     </cc:Agent>
    </dc:creator>
   </cc:Work>
  </rdf:RDF>
 </metadata>
 <defs>
  <style type="text/css">*{stroke-linejoin: round; stroke-linecap: butt}</style>
 </defs>
 <g id="figure_1">
  <g id="patch_1">
   <path d="M 0 288 
L 288 288 
L 288 0 
L 0 0 
L 0 288 
z
" style="fill: none"/>
  </g>
  <g id="axes_1">
   <g id="patch_2">
    <path d="M 147.664422 64.540455 
C 158.288053 64.548915 168.806717 66.649916 178.618434 70.723219 
C 188.430152 74.796523 197.344111 80.762913 204.850171 88.280937 
C 212.35623 95.79896 218.308416 104.72241 222.366087 114.540603 
C 226.423759 124.358796 228.508005 134.880792 228.499545 145.504422 
C 228.491085 156.128053 226.390084 166.646717 222.316781 176.458434 
C 218.243477 186.270152 212.277087 195.184111 204.759063 202.690171 
C 197.24104 210.19623 188.31759 216.148416 178.499397 220.206087 
C 168.681204 224.263759 158.159208 226.348005 147.535578 226.339545 
C 136.911947 226.331085 126.393283 224.230084 116.581566 220.156781 
C 106.769848 216.083477 97.855889 210.117087 90.349829 202.599063 
C 82.84377 195.08104 76.891584 186.15759 72.833913 176.339397 
C 68.776241 166.521204 66.691995 155.999208 66.700455 145.375578 
C 66.708915 134.751947 68.809916 124.233283 72.883219 114.421566 
C 76.956523 104.609848 82.922913 95.695889 90.440937 88.189829 
C 97.95896 80.68377 106.88241 74.731584 116.700603 70.673913 
C 126.518796 66.616241 137.040792 64.531995 147.664422 64.540455 
C 147.664621 64.540455 147.664819 64.540455 147.665017 64.540455 
C 147.665215 64.540455 147.665413 64.540456 147.665611 64.540456 
L 147.688768 35.987675 
C 133.31562 35.976019 119.079937 38.795672 105.79642 44.285268 
C 92.512902 49.774863 80.43988 57.827643 70.268288 67.982751 
C 60.096695 78.137858 52.024343 90.197802 46.513208 103.472398 
C 41.002073 116.746994 38.159332 130.978084 38.147675 145.351232 
C 38.136019 159.72438 40.955672 173.960063 46.445268 187.24358 
C 51.934863 200.527098 59.987643 212.60012 70.142751 222.771712 
C 80.297858 232.943305 92.357802 241.015657 105.632398 246.526792 
C 118.906994 252.037927 133.138084 254.880668 147.511232 254.892325 
C 161.88438 254.903981 176.120063 252.084328 189.40358 246.594732 
C 202.687098 241.105137 214.76012 233.052357 224.931712 222.897249 
C 235.103305 212.742142 243.175657 200.682198 248.686792 187.407602 
C 254.197927 174.133006 257.040668 159.901916 257.052325 145.528768 
C 257.063981 131.15562 254.244328 116.919937 248.754732 103.63642 
C 243.265137 90.352902 235.212357 78.27988 225.057249 68.108288 
C 214.902142 57.936695 202.842198 49.864343 189.567602 44.353208 
C 176.293006 38.842073 162.061916 35.999332 147.688768 35.987675 
C 147.6885 35.987675 147.688232 35.987675 147.687964 35.987675 
C 147.687696 35.987675 147.687428 35.987674 147.68716 35.987674 
z
" clip-path="url(#p2e180b87c2)" style="fill: #2b2d42; opacity: 0.2"/>
   </g>
   <g id="patch_3">
    <path d="M 147.664422 64.540455 
C 158.544726 64.549119 169.312298 66.752658 179.321305 71.018905 
C 189.330312 75.285152 198.376562 81.527072 205.917465 89.370277 
C 213.458368 97.213482 219.340083 106.497964 223.209829 116.666846 
C 227.079574 126.835728 228.858404 137.681554 228.439624 148.553799 
L 256.971256 149.652787 
C 257.53784 134.943279 255.131189 120.269514 249.89565 106.511615 
C 244.660112 92.753716 236.702498 80.192358 226.500099 69.580963 
C 216.297701 58.969567 204.058658 50.524618 190.51706 44.752636 
C 176.975462 38.980655 162.407571 35.999396 147.68716 35.987674 
z
" clip-path="url(#p2e180b87c2)" style="fill: #ff006e"/>
   </g>
   <g id="text_1">
    <!-- C++ -->
    <g style="fill: #ffffff" transform="translate(130.746252 130.267938) scale(0.14 -0.14)">
     <defs>
      <path id="DejaVuSans-Bold-43" d="M 4288 256 
Q 3956 84 3597 -3 
Q 3238 -91 2847 -91 
Q 1681 -91 1000 561 
Q 319 1213 319 2328 
Q 319 3447 1000 4098 
Q 1681 4750 2847 4750 
Q 3238 4750 3597 4662 
Q 3956 4575 4288 4403 
L 4288 3438 
Q 3953 3666 3628 3772 
Q 3303 3878 2944 3878 
Q 2300 3878 1931 3465 
Q 1563 3053 1563 2328 
Q 1563 1606 1931 1193 
Q 2300 781 2944 781 
Q 3303 781 3628 887 
Q 3953 994 4288 1222 
L 4288 256 
z
" transform="scale(0.015625)"/>
      <path id="DejaVuSans-Bold-2b" d="M 3053 4013 
L 3053 2375 
L 4684 2375 
L 4684 1638 
L 3053 1638 
L 3053 0 
L 2309 0 
L 2309 1638 
L 678 1638 
L 678 2375 
L 2309 2375 
L 2309 4013 
L 3053 4013 
z
" transform="scale(0.015625)"/>
     </defs>
     <use xlink:href="#DejaVuSans-Bold-43"/>
     <use xlink:href="#DejaVuSans-Bold-2b" transform="translate(73.388672 0)"/>
     <use xlink:href="#DejaVuSans-Bold-2b" transform="translate(157.177734 0)"/>
    </g>
   </g>
   <g id="text_2"/>
  </g>
  <defs>
   <clipPath id="p2e180b87c2">
    <path d="M 258.48 145.44 
C 258.48 130.879372 255.611874 116.460327 250.039763 103.008061 
C 244.467651 89.555795 236.299919 77.331919 226.004 67.036 
C 215.708081 56.740081 203.484205 48.572349 190.031939 43.000237 
C 176.579673 37.428126 162.160628 34.56 147.6 34.56 
C 133.039372 34.56 118.620327 37.428126 105.168061 43.000237 
C 91.715795 48.572349 79.491919 56.740081 69.196 67.036 
C 58.900081 77.331919 50.732349 89.555795 45.160237 103.008061 
C 39.588126 116.460327 36.72 130.879372 36.72 145.44 
C 36.72 160.000628 39.588126 174.419673 45.160237 187.871939 
C 50.732349 201.324205 58.900081 213.548081 69.196 223.844 
C 79.491919 234.139919 91.715795 242.307651 105.168061 247.879763 
C 118.620327 253.451874 133.039372 256.32 147.6 256.32 
C 162.160628 256.32 176.579673 253.451874 190.031939 247.879763 
C 203.484205 242.307651 215.708081 234.139919 226.004 223.844 
C 236.299919 213.548081 244.467651 201.324205 250.039763 187.871939 
C 255.611874 174.419673 258.48 160.000628 258.48 145.44 
M 147.6 145.44 
C 147.6 145.44 147.6 145.44 147.6 145.44 
C 147.6 145.44 147.6 145.44 147.6 145.44 
C 147.6 145.44 147.6 145.44 147.6 145.44 
C 147.6 145.44 147.6 145.44 147.6 145.44 
C 147.6 145.44 147.6 145.44 147.6 145.44 
C 147.6 145.44 147.6 145.44 147.6 145.44 
C 147.6 145.44 147.6 145.44 147.6 145.44 
C 147.6 145.44 147.6 145.44 147.6 145.44 
C 147.6 145.44 147.6 145.44 147.6 145.44 
C 147.6 145.44 147.6 145.44 147.6 145.44 
C 147.6 145.44 147.6 145.44 147.6 145.44 
C 147.6 145.44 147.6 145.44 147.6 145.44 
C 147.6 145.44 147.6 145.44 147.6 145.44 
C 147.6 145.44 147.6 145.44 147.6 145.44 
C 147.6 145.44 147.6 145.44 147.6 145.44 
C 147.6 145.44 147.6 145.44 147.6 145.44 
z
"/>
   </clipPath>
  </defs>
 </g>
</svg>
