<?xml version="1.0" encoding="utf-8" standalone="no"?>
<!DOCTYPE svg PUBLIC "-//W3C//DTD SVG 1.1//EN"
  "http://www.w3.org/Graphics/SVG/1.1/DTD/svg11.dtd">
<svg xmlns:xlink="http://www.w3.org/1999/xlink" width="347.04pt" height="347.04pt" viewBox="0 0 347.04 347.04" xmlns="http://www.w3.org/2000/svg" version="1.1">
 <metadata>
  <rdf:RDF xmlns:dc="http://purl.org/dc/elements/1.1/" xmlns:cc="http://creativecommons.org/ns#" xmlns:rdf="http://www.w3.org/1999/02/22-rdf-syntax-ns#">
   <cc:Work>
    <dc:type rdf:resource="http://purl.org/dc/dcmitype/StillImage"/>
    <dc:date>2025-09-10T13:08:26.515581</dc:date>
    <dc:format>image/svg+xml</dc:format>
    <dc:creator>
     <cc:Agent>
      <dc:title>Matplotlib v3.10.6, https://matplotlib.org/</dc:title>
     </cc:Agent>
    </dc:creator>
   </cc:Work>
  </rdf:RDF>
 </metadata>
 <defs>
  <style type="text/css">*{stroke-linejoin: round; stroke-linecap: butt}</style>
 </defs>
 <g id="figure_1">
  <g id="patch_1">
   <path d="M 0 347.04 
L 347.04 347.04 
L 347.04 -0 
L 0 -0 
L 0 347.04 
z
" style="fill: none"/>
  </g>
  <g id="axes_1">
   <g id="patch_2">
    <path d="M 339.84 173.52 
C 339.84 151.679058 335.537811 130.050491 327.179644 109.872092 
C 318.821477 89.693692 306.569878 71.357879 291.126 55.914 
C 275.682121 40.470122 257.346308 28.218523 237.167908 19.860356 
C 216.989509 11.502189 195.360942 7.2 173.52 7.2 
C 151.679058 7.2 130.050491 11.502189 109.872092 19.860356 
C 89.693692 28.218523 71.357879 40.470122 55.914 55.914 
C 40.470122 71.357879 28.218523 89.693692 19.860356 109.872092 
C 11.502189 130.050491 7.2 151.679058 7.2 173.52 
C 7.2 195.360942 11.502189 216.989509 19.860356 237.167908 
C 28.218523 257.346308 40.470122 275.682121 55.914 291.126 
C 71.357879 306.569878 89.693692 318.821477 109.872092 327.179644 
C 130.050491 335.537811 151.679058 339.84 173.52 339.84 
C 195.360942 339.84 216.989509 335.537811 237.167908 327.179644 
C 257.346308 318.821477 275.682121 306.569878 291.126 291.126 
C 306.569878 275.682121 318.821477 257.346308 327.179644 237.167908 
C 335.537811 216.989509 339.84 195.360942 339.84 173.52 
M 173.52 173.52 
C 173.52 173.52 173.52 173.52 173.52 173.52 
C 173.52 173.52 173.52 173.52 173.52 173.52 
C 173.52 173.52 173.52 173.52 173.52 173.52 
C 173.52 173.52 173.52 173.52 173.52 173.52 
C 173.52 173.52 173.52 173.52 173.52 173.52 
C 173.52 173.52 173.52 173.52 173.52 173.52 
C 173.52 173.52 173.52 173.52 173.52 173.52 
C 173.52 173.52 173.52 173.52 173.52 173.52 
C 173.52 173.52 173.52 173.52 173.52 173.52 
C 173.52 173.52 173.52 173.52 173.52 173.52 
C 173.52 173.52 173.52 173.52 173.52 173.52 
C 173.52 173.52 173.52 173.52 173.52 173.52 
C 173.52 173.52 173.52 173.52 173.52 173.52 
C 173.52 173.52 173.52 173.52 173.52 173.52 
C 173.52 173.52 173.52 173.52 173.52 173.52 
C 173.52 173.52 173.52 173.52 173.52 173.52 
L 173.52 173.52 
z
" style="fill: none"/>
   </g>
   <g id="patch_3">
    <path d="M 181.08 173.52 
C 181.08 171.720391 180.437422 169.978606 179.268669 168.610173 
C 178.099916 167.241739 176.480098 166.334597 174.702645 166.053076 
C 172.925191 165.771555 171.10433 166.133747 169.569911 167.07404 
C 168.035492 168.014334 166.886123 169.472301 166.330013 171.183832 
L 22.530267 124.460462 
C 34.208575 88.518328 58.345325 57.901007 90.568128 38.154848 
C 122.790931 18.408688 161.029019 10.80266 198.355536 16.714599 
C 235.682052 22.626538 269.698243 41.676521 294.242051 70.413628 
C 318.785859 99.150735 332.28 135.728204 332.28 173.52 
z
" clip-path="url(#pd2a4357e7a)" style="fill: #00f7ff; stroke: #ffffff; stroke-width: 2; stroke-linejoin: miter"/>
   </g>
   <g id="patch_4">
    <path d="M 166.330013 171.183832 
C 165.89921 172.509706 165.843436 173.92926 166.168883 175.284847 
C 166.494331 176.640434 167.188491 177.879945 168.174273 178.865727 
C 169.160055 179.851509 170.399566 180.545669 171.755153 180.871117 
C 173.11074 181.196564 174.530294 181.14079 175.856168 180.709987 
L 222.579538 324.509733 
C 194.736181 333.556588 164.925548 334.727851 136.458214 327.893449 
C 107.99088 321.059046 81.961154 306.481699 61.259727 285.780273 
C 40.558301 265.078846 25.980954 239.04912 19.146551 210.581786 
C 12.312149 182.114452 13.483412 152.303819 22.530267 124.460462 
z
" clip-path="url(#pd2a4357e7a)" style="fill: #ff2e63; stroke: #ffffff; stroke-width: 2; stroke-linejoin: miter"/>
   </g>
   <g id="patch_5">
    <path d="M 175.856168 180.709987 
C 176.990768 180.341334 178.022157 179.709298 178.865727 178.865727 
C 179.709298 178.022157 180.341334 176.990768 180.709987 175.856168 
L 324.509733 222.579538 
C 316.768004 246.406127 303.495248 268.065297 285.780273 285.780273 
C 268.065297 303.495248 246.406127 316.768004 222.579538 324.509733 
z
" clip-path="url(#pd2a4357e7a)" style="fill: #f7ff00; stroke: #ffffff; stroke-width: 2; stroke-linejoin: miter"/>
   </g>
   <g id="patch_6">
    <path d="M 180.709987 175.856168 
C 180.832372 175.479508 180.924969 175.093813 180.986924 174.702645 
C 181.048879 174.311476 181.08 173.916044 181.08 173.52 
L 332.28 173.52 
C 332.28 181.836925 331.626455 190.141006 330.325401 198.355536 
C 329.024347 206.570065 327.079804 214.669672 324.509733 222.579538 
z
" clip-path="url(#pd2a4357e7a)" style="fill: #9b59b6; stroke: #ffffff; stroke-width: 2; stroke-linejoin: miter"/>
   </g>
   <g id="matplotlib.axis_1"/>
   <g id="matplotlib.axis_2"/>
   <g id="text_1"/>
  </g>
  <defs>
   <clipPath id="pd2a4357e7a">
    <path d="M 339.84 173.52 
C 339.84 151.679058 335.537811 130.050491 327.179644 109.872092 
C 318.821477 89.693692 306.569878 71.357879 291.126 55.914 
C 275.682121 40.470122 257.346308 28.218523 237.167908 19.860356 
C 216.989509 11.502189 195.360942 7.2 173.52 7.2 
C 151.679058 7.2 130.050491 11.502189 109.872092 19.860356 
C 89.693692 28.218523 71.357879 40.470122 55.914 55.914 
C 40.470122 71.357879 28.218523 89.693692 19.860356 109.872092 
C 11.502189 130.050491 7.2 151.679058 7.2 173.52 
C 7.2 195.360942 11.502189 216.989509 19.860356 237.167908 
C 28.218523 257.346308 40.470122 275.682121 55.914 291.126 
C 71.357879 306.569878 89.693692 318.821477 109.872092 327.179644 
C 130.050491 335.537811 151.679058 339.84 173.52 339.84 
C 195.360942 339.84 216.989509 335.537811 237.167908 327.179644 
C 257.346308 318.821477 275.682121 306.569878 291.126 291.126 
C 306.569878 275.682121 318.821477 257.346308 327.179644 237.167908 
C 335.537811 216.989509 339.84 195.360942 339.84 173.52 
M 173.52 173.52 
C 173.52 173.52 173.52 173.52 173.52 173.52 
C 173.52 173.52 173.52 173.52 173.52 173.52 
C 173.52 173.52 173.52 173.52 173.52 173.52 
C 173.52 173.52 173.52 173.52 173.52 173.52 
C 173.52 173.52 173.52 173.52 173.52 173.52 
C 173.52 173.52 173.52 173.52 173.52 173.52 
C 173.52 173.52 173.52 173.52 173.52 173.52 
C 173.52 173.52 173.52 173.52 173.52 173.52 
C 173.52 173.52 173.52 173.52 173.52 173.52 
C 173.52 173.52 173.52 173.52 173.52 173.52 
C 173.52 173.52 173.52 173.52 173.52 173.52 
C 173.52 173.52 173.52 173.52 173.52 173.52 
C 173.52 173.52 173.52 173.52 173.52 173.52 
C 173.52 173.52 173.52 173.52 173.52 173.52 
C 173.52 173.52 173.52 173.52 173.52 173.52 
C 173.52 173.52 173.52 173.52 173.52 173.52 
z
"/>
   </clipPath>
  </defs>
 </g>
</svg>
