<?xml version="1.0" encoding="utf-8" standalone="no"?>
<!DOCTYPE svg PUBLIC "-//W3C//DTD SVG 1.1//EN"
  "http://www.w3.org/Graphics/SVG/1.1/DTD/svg11.dtd">
<svg xmlns:xlink="http://www.w3.org/1999/xlink" width="236.16pt" height="236.16pt" viewBox="0 0 236.16 236.16" xmlns="http://www.w3.org/2000/svg" version="1.1">
 <metadata>
  <rdf:RDF xmlns:dc="http://purl.org/dc/elements/1.1/" xmlns:cc="http://creativecommons.org/ns#" xmlns:rdf="http://www.w3.org/1999/02/22-rdf-syntax-ns#">
   <cc:Work>
    <dc:type rdf:resource="http://purl.org/dc/dcmitype/StillImage"/>
    <dc:date>2025-10-18T00:46:59.596856</dc:date>
    <dc:format>image/svg+xml</dc:format>
    <dc:creator>
     <cc:Agent>
      <dc:title>Matplotlib v3.10.7, https://matplotlib.org/</dc:title>
     </cc:Agent>
    </dc:creator>
   </cc:Work>
  </rdf:RDF>
 </metadata>
 <defs>
  <style type="text/css">*{stroke-linejoin: round; stroke-linecap: butt}</style>
 </defs>
 <g id="figure_1">
  <g id="patch_1">
   <path d="M 0 236.16 
L 236.16 236.16 
L 236.16 0 
L 0 0 
L 0 236.16 
z
" style="fill: none"/>
  </g>
  <g id="axes_1">
   <g id="patch_2">
    <path d="M 118.08 41.370566 
C 128.153391 41.370566 138.12883 43.354804 147.435429 47.209724 
C 156.742029 51.064644 165.198798 56.715276 172.321761 63.838239 
C 179.444724 70.961202 185.095356 79.417971 188.950276 88.724571 
C 192.805196 98.03117 194.789434 108.006609 194.789434 118.08 
C 194.789434 128.153391 192.805196 138.12883 188.950276 147.435429 
C 185.095356 156.742029 179.444724 165.198798 172.321761 172.321761 
C 165.198798 179.444724 156.742029 185.095356 147.435429 188.950276 
C 138.12883 192.805196 128.153391 194.789434 118.08 194.789434 
C 108.006609 194.789434 98.03117 192.805196 88.724571 188.950276 
C 79.417971 185.095356 70.961202 179.444724 63.838239 172.321761 
C 56.715276 165.198798 51.064644 156.742029 47.209724 147.435429 
C 43.354804 138.12883 41.370566 128.153391 41.370566 118.08 
C 41.370566 108.006609 43.354804 98.03117 47.209724 88.724571 
C 51.064644 79.417971 56.715276 70.961202 63.838239 63.838239 
C 70.961202 56.715276 79.417971 51.064644 88.724571 47.209724 
C 98.03117 43.354804 108.006609 41.370566 118.08 41.370566 
L 118.08 8.82717 
C 103.73305 8.82717 89.525606 11.653206 76.270752 17.143546 
C 63.015898 22.633886 50.971409 30.681757 40.826583 40.826583 
C 30.681757 50.971409 22.633886 63.015898 17.143546 76.270752 
C 11.653206 89.525606 8.82717 103.73305 8.82717 118.08 
C 8.82717 132.42695 11.653206 146.634394 17.143546 159.889248 
C 22.633886 173.144102 30.681757 185.188591 40.826583 195.333417 
C 50.971409 205.478243 63.015898 213.526114 76.270752 219.016454 
C 89.525606 224.506794 103.73305 227.33283 118.08 227.33283 
C 132.42695 227.33283 146.634394 224.506794 159.889248 219.016454 
C 173.144102 213.526114 185.188591 205.478243 195.333417 195.333417 
C 205.478243 185.188591 213.526114 173.144102 219.016454 159.889248 
C 224.506794 146.634394 227.33283 132.42695 227.33283 118.08 
C 227.33283 103.73305 224.506794 89.525606 219.016454 76.270752 
C 213.526114 63.015898 205.478243 50.971409 195.333417 40.826583 
C 185.188591 30.681757 173.144102 22.633886 159.889248 17.143546 
C 146.634394 11.653206 132.42695 8.82717 118.08 8.82717 
z
" clip-path="url(#p5375190a7f)" style="fill: #16181a"/>
   </g>
   <g id="patch_3">
    <path d="M 118.08 41.370566 
C 132.412792 41.370566 146.462727 45.387587 158.629334 52.964036 
C 170.795941 60.540486 180.599007 71.377324 186.921832 84.240091 
C 193.244657 97.102859 195.837683 111.483866 194.405528 125.744927 
C 192.973373 140.005987 187.572564 153.58422 178.818326 164.932887 
C 170.064088 176.281553 158.301948 184.952723 144.871767 189.958637 
C 131.441587 194.964551 116.873453 196.107626 102.826868 193.257651 
C 88.780283 190.407676 75.809661 183.677139 65.392529 173.832737 
C 54.975396 163.988334 47.522914 151.418622 43.884017 137.555457 
L 12.406934 145.817772 
C 17.589604 165.56228 28.203746 183.464597 43.040268 197.485413 
C 57.876791 211.506228 76.3501 221.092145 96.355842 225.1512 
C 116.361585 229.210255 137.110139 227.582239 156.237972 220.452604 
C 175.365804 213.322969 192.117944 200.973121 204.586101 184.809869 
C 217.054259 168.646617 224.746319 149.307921 226.786054 128.996714 
C 228.82579 108.685506 225.132694 88.203466 216.127458 69.883766 
C 207.122221 51.564067 193.16028 36.129783 175.832082 25.339082 
C 158.503884 14.548381 138.49337 8.82717 118.08 8.82717 
z
" clip-path="url(#p5375190a7f)" style="fill: #00b4d8"/>
   </g>
   <g id="patch_4">
    <path d="M 118.08 159.921509 
C 129.176498 159.921509 139.820006 155.512824 147.666415 147.666415 
C 155.512824 139.820006 159.921509 129.176498 159.921509 118.08 
C 159.921509 106.983502 155.512824 96.339994 147.666415 88.493585 
C 139.820006 80.647176 129.176498 76.238491 118.08 76.238491 
C 106.983502 76.238491 96.339994 80.647176 88.493585 88.493585 
C 80.647176 96.339994 76.238491 106.983502 76.238491 118.08 
C 76.238491 129.176498 80.647176 139.820006 88.493585 147.666415 
C 96.339994 155.512824 106.983502 159.921509 118.08 159.921509 
z
" clip-path="url(#p5375190a7f)" style="fill: #0d1117; stroke: #0d1117; stroke-linejoin: miter"/>
   </g>
  </g>
  <g id="text_1">
   <!-- C -->
   <g style="fill: #ffffff" transform="translate(108.60875 103.775) scale(0.16 -0.16)">
    <defs>
     <path id="DejaVuSans-Bold-43" d="M 4288 256 
Q 3956 84 3597 -3 
Q 3238 -91 2847 -91 
Q 1681 -91 1000 561 
Q 319 1213 319 2328 
Q 319 3447 1000 4098 
Q 1681 4750 2847 4750 
Q 3238 4750 3597 4662 
Q 3956 4575 4288 4403 
L 4288 3438 
Q 3953 3666 3628 3772 
Q 3303 3878 2944 3878 
Q 2300 3878 1931 3465 
Q 1563 3053 1563 2328 
Q 1563 1606 1931 1193 
Q 2300 781 2944 781 
Q 3303 781 3628 887 
Q 3953 994 4288 1222 
L 4288 256 
z
" transform="scale(0.015625)"/>
    </defs>
    <use xlink:href="#DejaVuSans-Bold-43"/>
   </g>
  </g>
  <g id="text_2">
   <!-- 70.9% -->
   <g style="fill: #00b4d8" transform="translate(62.441719 145.078125) scale(0.3 -0.3)">
    <defs>
     <path id="DejaVuSans-Bold-37" d="M 428 4666 
L 3944 4666 
L 3944 3988 
L 2125 0 
L 953 0 
L 2675 3781 
L 428 3781 
L 428 4666 
z
" transform="scale(0.015625)"/>
     <path id="DejaVuSans-Bold-30" d="M 2944 2338 
Q 2944 3213 2780 3570 
Q 2616 3928 2228 3928 
Q 1841 3928 1675 3570 
Q 1509 3213 1509 2338 
Q 1509 1453 1675 1090 
Q 1841 728 2228 728 
Q 2613 728 2778 1090 
Q 2944 1453 2944 2338 
z
M 4147 2328 
Q 4147 1169 3647 539 
Q 3147 -91 2228 -91 
Q 1306 -91 806 539 
Q 306 1169 306 2328 
Q 306 3491 806 4120 
Q 1306 4750 2228 4750 
Q 3147 4750 3647 4120 
Q 4147 3491 4147 2328 
z
" transform="scale(0.015625)"/>
     <path id="DejaVuSans-Bold-2e" d="M 653 1209 
L 1778 1209 
L 1778 0 
L 653 0 
L 653 1209 
z
" transform="scale(0.015625)"/>
     <path id="DejaVuSans-Bold-39" d="M 641 103 
L 641 966 
Q 928 831 1190 764 
Q 1453 697 1709 697 
Q 2247 697 2547 995 
Q 2847 1294 2900 1881 
Q 2688 1725 2447 1647 
Q 2206 1569 1925 1569 
Q 1209 1569 770 1986 
Q 331 2403 331 3084 
Q 331 3838 820 4291 
Q 1309 4744 2131 4744 
Q 3044 4744 3544 4128 
Q 4044 3513 4044 2388 
Q 4044 1231 3459 570 
Q 2875 -91 1856 -91 
Q 1528 -91 1228 -42 
Q 928 6 641 103 
z
M 2125 2350 
Q 2441 2350 2600 2554 
Q 2759 2759 2759 3169 
Q 2759 3575 2600 3781 
Q 2441 3988 2125 3988 
Q 1809 3988 1650 3781 
Q 1491 3575 1491 3169 
Q 1491 2759 1650 2554 
Q 1809 2350 2125 2350 
z
" transform="scale(0.015625)"/>
     <path id="DejaVuSans-Bold-25" d="M 4959 1925 
Q 4738 1925 4616 1733 
Q 4494 1541 4494 1184 
Q 4494 825 4614 633 
Q 4734 441 4959 441 
Q 5184 441 5303 633 
Q 5422 825 5422 1184 
Q 5422 1541 5301 1733 
Q 5181 1925 4959 1925 
z
M 4959 2450 
Q 5541 2450 5875 2112 
Q 6209 1775 6209 1184 
Q 6209 594 5875 251 
Q 5541 -91 4959 -91 
Q 4378 -91 4042 251 
Q 3706 594 3706 1184 
Q 3706 1772 4042 2111 
Q 4378 2450 4959 2450 
z
M 2094 -91 
L 1403 -91 
L 4319 4750 
L 5013 4750 
L 2094 -91 
z
M 1453 4750 
Q 2034 4750 2367 4411 
Q 2700 4072 2700 3481 
Q 2700 2891 2367 2550 
Q 2034 2209 1453 2209 
Q 872 2209 539 2550 
Q 206 2891 206 3481 
Q 206 4072 539 4411 
Q 872 4750 1453 4750 
z
M 1453 4225 
Q 1228 4225 1106 4031 
Q 984 3838 984 3481 
Q 984 3122 1106 2926 
Q 1228 2731 1453 2731 
Q 1678 2731 1798 2926 
Q 1919 3122 1919 3481 
Q 1919 3838 1797 4031 
Q 1675 4225 1453 4225 
z
" transform="scale(0.015625)"/>
    </defs>
    <use xlink:href="#DejaVuSans-Bold-37"/>
    <use xlink:href="#DejaVuSans-Bold-30" transform="translate(69.580078 0)"/>
    <use xlink:href="#DejaVuSans-Bold-2e" transform="translate(139.160156 0)"/>
    <use xlink:href="#DejaVuSans-Bold-39" transform="translate(177.148438 0)"/>
    <use xlink:href="#DejaVuSans-Bold-25" transform="translate(246.728516 0)"/>
   </g>
  </g>
 </g>
 <defs>
  <clipPath id="p5375190a7f">
   <path d="M 228.96 118.08 
C 228.96 103.519372 226.091874 89.100327 220.519763 75.648061 
C 214.947651 62.195795 206.779919 49.971919 196.484 39.676 
C 186.188081 29.380081 173.964205 21.212349 160.511939 15.640237 
C 147.059673 10.068126 132.640628 7.2 118.08 7.2 
C 103.519372 7.2 89.100327 10.068126 75.648061 15.640237 
C 62.195795 21.212349 49.971919 29.380081 39.676 39.676 
C 29.380081 49.971919 21.212349 62.195795 15.640237 75.648061 
C 10.068126 89.100327 7.2 103.519372 7.2 118.08 
C 7.2 132.640628 10.068126 147.059673 15.640237 160.511939 
C 21.212349 173.964205 29.380081 186.188081 39.676 196.484 
C 49.971919 206.779919 62.195795 214.947651 75.648061 220.519763 
C 89.100327 226.091874 103.519372 228.96 118.08 228.96 
C 132.640628 228.96 147.059673 226.091874 160.511939 220.519763 
C 173.964205 214.947651 186.188081 206.779919 196.484 196.484 
C 206.779919 186.188081 214.947651 173.964205 220.519763 160.511939 
C 226.091874 147.059673 228.96 132.640628 228.96 118.08 
M 118.08 118.08 
C 118.08 118.08 118.08 118.08 118.08 118.08 
C 118.08 118.08 118.08 118.08 118.08 118.08 
C 118.08 118.08 118.08 118.08 118.08 118.08 
C 118.08 118.08 118.08 118.08 118.08 118.08 
C 118.08 118.08 118.08 118.08 118.08 118.08 
C 118.08 118.08 118.08 118.08 118.08 118.08 
C 118.08 118.08 118.08 118.08 118.08 118.08 
C 118.08 118.08 118.08 118.08 118.08 118.08 
C 118.08 118.08 118.08 118.08 118.08 118.08 
C 118.08 118.08 118.08 118.08 118.08 118.08 
C 118.08 118.08 118.08 118.08 118.08 118.08 
C 118.08 118.08 118.08 118.08 118.08 118.08 
C 118.08 118.08 118.08 118.08 118.08 118.08 
C 118.08 118.08 118.08 118.08 118.08 118.08 
C 118.08 118.08 118.08 118.08 118.08 118.08 
C 118.08 118.08 118.08 118.08 118.08 118.08 
z
"/>
  </clipPath>
 </defs>
</svg>
