<?xml version="1.0" encoding="utf-8" standalone="no"?>
<!DOCTYPE svg PUBLIC "-//W3C//DTD SVG 1.1//EN"
  "http://www.w3.org/Graphics/SVG/1.1/DTD/svg11.dtd">
<svg xmlns:xlink="http://www.w3.org/1999/xlink" width="236.16pt" height="236.16pt" viewBox="0 0 236.16 236.16" xmlns="http://www.w3.org/2000/svg" version="1.1">
 <metadata>
  <rdf:RDF xmlns:dc="http://purl.org/dc/elements/1.1/" xmlns:cc="http://creativecommons.org/ns#" xmlns:rdf="http://www.w3.org/1999/02/22-rdf-syntax-ns#">
   <cc:Work>
    <dc:type rdf:resource="http://purl.org/dc/dcmitype/StillImage"/>
    <dc:date>2025-10-02T00:48:27.587751</dc:date>
    <dc:format>image/svg+xml</dc:format>
    <dc:creator>
     <cc:Agent>
      <dc:title>Matplotlib v3.10.6, https://matplotlib.org/</dc:title>
     </cc:Agent>
    </dc:creator>
   </cc:Work>
  </rdf:RDF>
 </metadata>
 <defs>
  <style type="text/css">*{stroke-linejoin: round; stroke-linecap: butt}</style>
 </defs>
 <g id="figure_1">
  <g id="patch_1">
   <path d="M 0 236.16 
L 236.16 236.16 
L 236.16 0 
L 0 0 
L 0 236.16 
z
" style="fill: none"/>
  </g>
  <g id="axes_1">
   <g id="patch_2">
    <path d="M 118.08 41.370566 
C 128.153391 41.370566 138.12883 43.354804 147.435429 47.209724 
C 156.742029 51.064644 165.198798 56.715276 172.321761 63.838239 
C 179.444724 70.961202 185.095356 79.417971 188.950276 88.724571 
C 192.805196 98.03117 194.789434 108.006609 194.789434 118.08 
C 194.789434 128.153391 192.805196 138.12883 188.950276 147.435429 
C 185.095356 156.742029 179.444724 165.198798 172.321761 172.321761 
C 165.198798 179.444724 156.742029 185.095356 147.435429 188.950276 
C 138.12883 192.805196 128.153391 194.789434 118.08 194.789434 
C 108.006609 194.789434 98.03117 192.805196 88.724571 188.950276 
C 79.417971 185.095356 70.961202 179.444724 63.838239 172.321761 
C 56.715276 165.198798 51.064644 156.742029 47.209724 147.435429 
C 43.354804 138.12883 41.370566 128.153391 41.370566 118.08 
C 41.370566 108.006609 43.354804 98.03117 47.209724 88.724571 
C 51.064644 79.417971 56.715276 70.961202 63.838239 63.838239 
C 70.961202 56.715276 79.417971 51.064644 88.724571 47.209724 
C 98.03117 43.354804 108.006609 41.370566 118.08 41.370566 
L 118.08 8.82717 
C 103.73305 8.82717 89.525606 11.653206 76.270752 17.143546 
C 63.015898 22.633886 50.971409 30.681757 40.826583 40.826583 
C 30.681757 50.971409 22.633886 63.015898 17.143546 76.270752 
C 11.653206 89.525606 8.82717 103.73305 8.82717 118.08 
C 8.82717 132.42695 11.653206 146.634394 17.143546 159.889248 
C 22.633886 173.144102 30.681757 185.188591 40.826583 195.333417 
C 50.971409 205.478243 63.015898 213.526114 76.270752 219.016454 
C 89.525606 224.506794 103.73305 227.33283 118.08 227.33283 
C 132.42695 227.33283 146.634394 224.506794 159.889248 219.016454 
C 173.144102 213.526114 185.188591 205.478243 195.333417 195.333417 
C 205.478243 185.188591 213.526114 173.144102 219.016454 159.889248 
C 224.506794 146.634394 227.33283 132.42695 227.33283 118.08 
C 227.33283 103.73305 224.506794 89.525606 219.016454 76.270752 
C 213.526114 63.015898 205.478243 50.971409 195.333417 40.826583 
C 185.188591 30.681757 173.144102 22.633886 159.889248 17.143546 
C 146.634394 11.653206 132.42695 8.82717 118.08 8.82717 
z
" clip-path="url(#p8f54734e73)" style="fill: #16181a"/>
   </g>
   <g id="patch_3">
    <path d="M 118.08 41.370566 
C 133.91913 41.370566 149.376098 46.276313 162.316271 55.410313 
C 175.256443 64.544314 185.055387 77.465805 190.359851 92.390305 
C 195.664314 107.314804 196.21833 123.522127 191.945385 138.774011 
C 187.672441 154.025895 178.77873 167.586357 166.49249 177.582673 
L 187.031122 202.826231 
C 204.529707 188.589055 217.196507 169.275669 223.282216 147.553288 
C 229.367924 125.830908 228.578872 102.747752 221.02403 81.491646 
C 213.469187 60.23554 199.513116 41.832205 181.083173 28.823174 
C 162.653231 15.814142 140.63876 8.82717 118.08 8.82717 
z
" clip-path="url(#p8f54734e73)" style="fill: #ff006e"/>
   </g>
   <g id="patch_4">
    <path d="M 118.08 159.921509 
C 129.176498 159.921509 139.820006 155.512824 147.666415 147.666415 
C 155.512824 139.820006 159.921509 129.176498 159.921509 118.08 
C 159.921509 106.983502 155.512824 96.339994 147.666415 88.493585 
C 139.820006 80.647176 129.176498 76.238491 118.08 76.238491 
C 106.983502 76.238491 96.339994 80.647176 88.493585 88.493585 
C 80.647176 96.339994 76.238491 106.983502 76.238491 118.08 
C 76.238491 129.176498 80.647176 139.820006 88.493585 147.666415 
C 96.339994 155.512824 106.983502 159.921509 118.08 159.921509 
z
" clip-path="url(#p8f54734e73)" style="fill: #0d1117; stroke: #0d1117; stroke-linejoin: miter"/>
   </g>
  </g>
  <g id="text_1">
   <!-- C++ -->
   <g style="fill: #ffffff" transform="translate(95.20125 103.775) scale(0.16 -0.16)">
    <defs>
     <path id="DejaVuSans-Bold-43" d="M 4288 256 
Q 3956 84 3597 -3 
Q 3238 -91 2847 -91 
Q 1681 -91 1000 561 
Q 319 1213 319 2328 
Q 319 3447 1000 4098 
Q 1681 4750 2847 4750 
Q 3238 4750 3597 4662 
Q 3956 4575 4288 4403 
L 4288 3438 
Q 3953 3666 3628 3772 
Q 3303 3878 2944 3878 
Q 2300 3878 1931 3465 
Q 1563 3053 1563 2328 
Q 1563 1606 1931 1193 
Q 2300 781 2944 781 
Q 3303 781 3628 887 
Q 3953 994 4288 1222 
L 4288 256 
z
" transform="scale(0.015625)"/>
     <path id="DejaVuSans-Bold-2b" d="M 3053 4013 
L 3053 2375 
L 4684 2375 
L 4684 1638 
L 3053 1638 
L 3053 0 
L 2309 0 
L 2309 1638 
L 678 1638 
L 678 2375 
L 2309 2375 
L 2309 4013 
L 3053 4013 
z
" transform="scale(0.015625)"/>
    </defs>
    <use xlink:href="#DejaVuSans-Bold-43"/>
    <use xlink:href="#DejaVuSans-Bold-2b" transform="translate(73.388672 0)"/>
    <use xlink:href="#DejaVuSans-Bold-2b" transform="translate(157.177734 0)"/>
   </g>
  </g>
  <g id="text_2">
   <!-- 39.1% -->
   <g style="fill: #ff006e" transform="translate(62.441719 145.078125) scale(0.3 -0.3)">
    <defs>
     <path id="DejaVuSans-Bold-33" d="M 2981 2516 
Q 3453 2394 3698 2092 
Q 3944 1791 3944 1325 
Q 3944 631 3412 270 
Q 2881 -91 1863 -91 
Q 1503 -91 1142 -33 
Q 781 25 428 141 
L 428 1069 
Q 766 900 1098 814 
Q 1431 728 1753 728 
Q 2231 728 2486 893 
Q 2741 1059 2741 1369 
Q 2741 1688 2480 1852 
Q 2219 2016 1709 2016 
L 1228 2016 
L 1228 2791 
L 1734 2791 
Q 2188 2791 2409 2933 
Q 2631 3075 2631 3366 
Q 2631 3634 2415 3781 
Q 2200 3928 1806 3928 
Q 1516 3928 1219 3862 
Q 922 3797 628 3669 
L 628 4550 
Q 984 4650 1334 4700 
Q 1684 4750 2022 4750 
Q 2931 4750 3382 4451 
Q 3834 4153 3834 3553 
Q 3834 3144 3618 2883 
Q 3403 2622 2981 2516 
z
" transform="scale(0.015625)"/>
     <path id="DejaVuSans-Bold-39" d="M 641 103 
L 641 966 
Q 928 831 1190 764 
Q 1453 697 1709 697 
Q 2247 697 2547 995 
Q 2847 1294 2900 1881 
Q 2688 1725 2447 1647 
Q 2206 1569 1925 1569 
Q 1209 1569 770 1986 
Q 331 2403 331 3084 
Q 331 3838 820 4291 
Q 1309 4744 2131 4744 
Q 3044 4744 3544 4128 
Q 4044 3513 4044 2388 
Q 4044 1231 3459 570 
Q 2875 -91 1856 -91 
Q 1528 -91 1228 -42 
Q 928 6 641 103 
z
M 2125 2350 
Q 2441 2350 2600 2554 
Q 2759 2759 2759 3169 
Q 2759 3575 2600 3781 
Q 2441 3988 2125 3988 
Q 1809 3988 1650 3781 
Q 1491 3575 1491 3169 
Q 1491 2759 1650 2554 
Q 1809 2350 2125 2350 
z
" transform="scale(0.015625)"/>
     <path id="DejaVuSans-Bold-2e" d="M 653 1209 
L 1778 1209 
L 1778 0 
L 653 0 
L 653 1209 
z
" transform="scale(0.015625)"/>
     <path id="DejaVuSans-Bold-31" d="M 750 831 
L 1813 831 
L 1813 3847 
L 722 3622 
L 722 4441 
L 1806 4666 
L 2950 4666 
L 2950 831 
L 4013 831 
L 4013 0 
L 750 0 
L 750 831 
z
" transform="scale(0.015625)"/>
     <path id="DejaVuSans-Bold-25" d="M 4959 1925 
Q 4738 1925 4616 1733 
Q 4494 1541 4494 1184 
Q 4494 825 4614 633 
Q 4734 441 4959 441 
Q 5184 441 5303 633 
Q 5422 825 5422 1184 
Q 5422 1541 5301 1733 
Q 5181 1925 4959 1925 
z
M 4959 2450 
Q 5541 2450 5875 2112 
Q 6209 1775 6209 1184 
Q 6209 594 5875 251 
Q 5541 -91 4959 -91 
Q 4378 -91 4042 251 
Q 3706 594 3706 1184 
Q 3706 1772 4042 2111 
Q 4378 2450 4959 2450 
z
M 2094 -91 
L 1403 -91 
L 4319 4750 
L 5013 4750 
L 2094 -91 
z
M 1453 4750 
Q 2034 4750 2367 4411 
Q 2700 4072 2700 3481 
Q 2700 2891 2367 2550 
Q 2034 2209 1453 2209 
Q 872 2209 539 2550 
Q 206 2891 206 3481 
Q 206 4072 539 4411 
Q 872 4750 1453 4750 
z
M 1453 4225 
Q 1228 4225 1106 4031 
Q 984 3838 984 3481 
Q 984 3122 1106 2926 
Q 1228 2731 1453 2731 
Q 1678 2731 1798 2926 
Q 1919 3122 1919 3481 
Q 1919 3838 1797 4031 
Q 1675 4225 1453 4225 
z
" transform="scale(0.015625)"/>
    </defs>
    <use xlink:href="#DejaVuSans-Bold-33"/>
    <use xlink:href="#DejaVuSans-Bold-39" transform="translate(69.580078 0)"/>
    <use xlink:href="#DejaVuSans-Bold-2e" transform="translate(139.160156 0)"/>
    <use xlink:href="#DejaVuSans-Bold-31" transform="translate(177.148438 0)"/>
    <use xlink:href="#DejaVuSans-Bold-25" transform="translate(246.728516 0)"/>
   </g>
  </g>
 </g>
 <defs>
  <clipPath id="p8f54734e73">
   <path d="M 228.96 118.08 
C 228.96 103.519372 226.091874 89.100327 220.519763 75.648061 
C 214.947651 62.195795 206.779919 49.971919 196.484 39.676 
C 186.188081 29.380081 173.964205 21.212349 160.511939 15.640237 
C 147.059673 10.068126 132.640628 7.2 118.08 7.2 
C 103.519372 7.2 89.100327 10.068126 75.648061 15.640237 
C 62.195795 21.212349 49.971919 29.380081 39.676 39.676 
C 29.380081 49.971919 21.212349 62.195795 15.640237 75.648061 
C 10.068126 89.100327 7.2 103.519372 7.2 118.08 
C 7.2 132.640628 10.068126 147.059673 15.640237 160.511939 
C 21.212349 173.964205 29.380081 186.188081 39.676 196.484 
C 49.971919 206.779919 62.195795 214.947651 75.648061 220.519763 
C 89.100327 226.091874 103.519372 228.96 118.08 228.96 
C 132.640628 228.96 147.059673 226.091874 160.511939 220.519763 
C 173.964205 214.947651 186.188081 206.779919 196.484 196.484 
C 206.779919 186.188081 214.947651 173.964205 220.519763 160.511939 
C 226.091874 147.059673 228.96 132.640628 228.96 118.08 
M 118.08 118.08 
C 118.08 118.08 118.08 118.08 118.08 118.08 
C 118.08 118.08 118.08 118.08 118.08 118.08 
C 118.08 118.08 118.08 118.08 118.08 118.08 
C 118.08 118.08 118.08 118.08 118.08 118.08 
C 118.08 118.08 118.08 118.08 118.08 118.08 
C 118.08 118.08 118.08 118.08 118.08 118.08 
C 118.08 118.08 118.08 118.08 118.08 118.08 
C 118.08 118.08 118.08 118.08 118.08 118.08 
C 118.08 118.08 118.08 118.08 118.08 118.08 
C 118.08 118.08 118.08 118.08 118.08 118.08 
C 118.08 118.08 118.08 118.08 118.08 118.08 
C 118.08 118.08 118.08 118.08 118.08 118.08 
C 118.08 118.08 118.08 118.08 118.08 118.08 
C 118.08 118.08 118.08 118.08 118.08 118.08 
C 118.08 118.08 118.08 118.08 118.08 118.08 
C 118.08 118.08 118.08 118.08 118.08 118.08 
z
"/>
  </clipPath>
 </defs>
</svg>
